<svg xmlns="http://www.w3.org/2000/svg" viewBox="0 0 20 20"><defs><style>.cls-1{fill:#fff;fill-rule:evenodd;}</style></defs><title>Ресурс 2</title><g id="Слой_2" data-name="Слой 2"><g id="Слой_1-2" data-name="Слой 1"><path class="cls-1" d="M10,15.2h7.6a2.4,2.4,0,1,1,0,4.8H10a2.4,2.4,0,0,1,0-4.8Zm-7.6,0A2.4,2.4,0,1,1,0,17.6a2.4,2.4,0,0,1,2.4-2.4ZM10,7.6h7.6a2.4,2.4,0,1,1,0,4.8H10a2.4,2.4,0,1,1,0-4.8Zm-7.6,0A2.4,2.4,0,1,1,0,10,2.4,2.4,0,0,1,2.4,7.6ZM10,0h7.6a2.4,2.4,0,1,1,0,4.8H10A2.4,2.4,0,1,1,10,0ZM2.4,0A2.4,2.4,0,1,1,0,2.4,2.4,2.4,0,0,1,2.4,0Z"/></g></g></svg>