<svg xmlns="http://www.w3.org/2000/svg" viewBox="0 0 20 20"><defs><style>.cls-1{fill:#07a1e2;fill-rule:evenodd;}</style></defs><title>Ресурс 1</title><g id="Слой_2" data-name="Слой 2"><g id="Слой_1-2" data-name="Слой 1"><path class="cls-1" d="M17.6,15.2a2.4,2.4,0,1,1-2.4,2.4,2.4,2.4,0,0,1,2.4-2.4Zm-7.6,0a2.4,2.4,0,1,1-2.4,2.4A2.4,2.4,0,0,1,10,15.2Zm-7.6,0A2.4,2.4,0,1,1,0,17.6a2.41,2.41,0,0,1,2.4-2.4Zm0-7.6A2.4,2.4,0,1,1,0,10,2.4,2.4,0,0,1,2.4,7.6Zm7.6,0A2.4,2.4,0,1,1,7.6,10,2.4,2.4,0,0,1,10,7.6Zm7.6,0A2.4,2.4,0,1,1,15.2,10a2.4,2.4,0,0,1,2.4-2.4Zm0-7.6a2.4,2.4,0,1,1-2.4,2.4A2.4,2.4,0,0,1,17.6,0ZM10,0A2.4,2.4,0,1,1,7.6,2.4,2.4,2.4,0,0,1,10,0ZM2.4,0A2.4,2.4,0,1,1,0,2.4,2.4,2.4,0,0,1,2.4,0Z"/></g></g></svg>